<svg width="300" xmlns="http://www.w3.org/2000/svg" xmlns:xlink="http://www.w3.org/1999/xlink" viewBox="0 0 375 667"><defs><style>.a,.p{fill:none;}.b{clip-path:url(#g);}.c,.e,.g,.h,.s{fill:#fff;}.c,.n,.p{stroke:#707070;}.d{opacity:0.25;}.e{font-size:20px;}.e,.g{font-family:HelveticaNeue-Bold, Helvetica Neue;font-weight:700;}.f,.j{font-family:HiraginoSans-W6, Hiragino Sans;}.f{font-weight:400;}.g{font-size:58px;}.i,.m{fill:#d6d6d6;}.i{stroke:#fff;}.j,.n,.o,.r{fill:#707070;}.j{font-size:18px;}.k{clip-path:url(#a);}.l{clip-path:url(#b);}.o{font-size:22px;font-family:HiraginoSans-W3, Hiragino Sans;}.q,.r{stroke:none;}</style><clipPath id="a"><rect class="a" width="360" height="233"/></clipPath><clipPath id="b"><rect class="a" width="360" height="50"/></clipPath><clipPath id="g"><rect width="375" height="667"/></clipPath></defs><g id="f" class="b"><rect class="s" width="375" height="667"/><g class="c" transform="translate(141 287)"><rect class="q" width="93" height="380" rx="30"/><rect class="a" x="0.5" y="0.5" width="92" height="379" rx="29.5"/></g><rect class="d" width="375" height="70"/><text class="e" transform="translate(19 31)"><tspan x="0" y="0">07/07(</tspan><tspan class="f" y="0">土</tspan><tspan y="0">)</tspan></text><text class="g" transform="translate(115 54)"><tspan x="0" y="0">12:00</tspan></text><g class="h" transform="translate(19 309.873)"><path class="q" d="M 337.5003967285156 100.6275939941406 L 0.4999900162220001 100.6275939941406 L 0.4999900162220001 21.62751007080078 L 153.0791931152344 21.62751007080078 L 153.2863159179688 21.62751007080078 L 153.4327392578125 21.48105049133301 L 174.2067108154297 0.7070848345756531 L 194.9815673828125 21.48105049133301 L 195.1280364990234 21.62751007080078 L 195.3351135253906 21.62751007080078 L 337.5003967285156 21.62751007080078 L 337.5003967285156 100.6275939941406 Z"/><path class="r" d="M 337.0003967285156 100.1275939941406 L 337.0003967285156 22.12751007080078 L 195.3351135253906 22.12751007080078 L 194.9209136962891 22.12751007080078 L 194.6280364990234 21.83463478088379 L 174.2067413330078 1.414222955703735 L 153.7863159179688 21.83463478088379 L 153.493408203125 22.12751007080078 L 153.0791931152344 22.12751007080078 L 0.9999900460243225 22.12751007080078 L 0.9999900460243225 100.1275939941406 L 337.0003967285156 100.1275939941406 M 338.0003967285156 101.1275939941406 L -9.969075108529069e-06 101.1275939941406 L -9.969075108529069e-06 21.12751007080078 L 153.0791931152344 21.12751007080078 L 174.2066955566406 9.145101103058551e-06 L 195.3351135253906 21.12751007080078 L 338.0003967285156 21.12751007080078 L 338.0003967285156 101.1275939941406 Z"/></g><g transform="translate(-211 -387)"><g class="c" transform="translate(219 470)"><rect class="q" width="284.5" height="50"/><rect class="a" x="0.5" y="0.5" width="283.5" height="49"/></g></g><g transform="translate(-13032 -4178)"><g class="i" transform="translate(13330 4261)"><rect class="q" width="72" height="50" rx="4"/><rect class="a" x="0.5" y="0.5" width="71" height="49" rx="3.5"/></g><text class="j" transform="translate(13367 4292)"><tspan x="-18" y="0">追加</tspan></text></g><g class="k" transform="translate(8 427)"><g transform="translate(-8 -427)"><g class="l" transform="translate(8 427)"><g transform="translate(-219 -470)"><g class="c" transform="translate(219 470)"><rect class="q" width="360" height="50" rx="10"/><rect class="a" x="0.5" y="0.5" width="359" height="49" rx="9.5"/></g></g></g><g transform="translate(29 205)"><path class="m" d="M0,0H67A10,10,0,0,1,77,10V39.878a10,10,0,0,1-10,10H0a0,0,0,0,1,0,0V0A0,0,0,0,1,0,0Z" transform="translate(262 222)"/></g><text class="j" transform="translate(332 459)"><tspan x="-18" y="0">削除</tspan></text></g><g transform="translate(-8 -367)"><g class="l" transform="translate(8 427)"><g transform="translate(-219 -470)"><g class="c" transform="translate(219 470)"><rect class="q" width="360" height="50" rx="10"/><rect class="a" x="0.5" y="0.5" width="359" height="49" rx="9.5"/></g></g></g><g transform="translate(29 205)"><path class="m" d="M0,0H67A10,10,0,0,1,77,10V39.878a10,10,0,0,1-10,10H0a0,0,0,0,1,0,0V0A0,0,0,0,1,0,0Z" transform="translate(262 222)"/></g><text class="j" transform="translate(332 459)"><tspan x="-18" y="0">削除</tspan></text></g><g transform="translate(-8 -307)"><g class="l" transform="translate(8 427)"><g transform="translate(-219 -470)"><g class="c" transform="translate(219 470)"><rect class="q" width="360" height="50" rx="10"/><rect class="a" x="0.5" y="0.5" width="359" height="49" rx="9.5"/></g></g></g><g transform="translate(29 205)"><path class="m" d="M0,0H67A10,10,0,0,1,77,10V39.878a10,10,0,0,1-10,10H0a0,0,0,0,1,0,0V0A0,0,0,0,1,0,0Z" transform="translate(262 222)"/></g><text class="j" transform="translate(332 459)"><tspan x="-18" y="0">削除</tspan></text></g><g transform="translate(-8 -247)"><g class="l" transform="translate(8 427)"><g transform="translate(-219 -470)"><g class="c" transform="translate(219 470)"><rect class="q" width="360" height="50" rx="10"/><rect class="a" x="0.5" y="0.5" width="359" height="49" rx="9.5"/></g></g></g><g transform="translate(29 205)"><path class="m" d="M0,0H67A10,10,0,0,1,77,10V39.878a10,10,0,0,1-10,10H0a0,0,0,0,1,0,0V0A0,0,0,0,1,0,0Z" transform="translate(262 222)"/></g><text class="j" transform="translate(332 459)"><tspan x="-18" y="0">削除</tspan></text></g></g><g class="c" transform="translate(133 177)"><ellipse class="q" cx="56" cy="55.5" rx="56" ry="55.5"/><ellipse class="a" cx="56" cy="55.5" rx="55.5" ry="55"/></g><g transform="translate(7 4)"><g class="c" transform="translate(137 210)"><ellipse class="q" cx="19" cy="9.5" rx="19" ry="9.5"/><ellipse class="a" cx="19" cy="9.5" rx="18.5" ry="9"/></g><g class="n" transform="translate(148 210)"><ellipse class="q" cx="8" cy="9" rx="8" ry="9"/><ellipse class="a" cx="8" cy="9" rx="7.5" ry="8.5"/></g></g><g transform="translate(59 4)"><g class="c" transform="translate(137 210)"><ellipse class="q" cx="19" cy="9.5" rx="19" ry="9.5"/><ellipse class="a" cx="19" cy="9.5" rx="18.5" ry="9"/></g><g class="n" transform="translate(148 210)"><ellipse class="q" cx="8" cy="9" rx="8" ry="9"/><ellipse class="a" cx="8" cy="9" rx="7.5" ry="8.5"/></g></g><g class="c" transform="translate(154 246)"><path class="q" d="M0,0H68a0,0,0,0,1,0,0V0A31,31,0,0,1,37,31H31A31,31,0,0,1,0,0V0A0,0,0,0,1,0,0Z"/><path class="a" d="M.833.5H67.167A.333.333,0,0,1,67.5.833v0A29.667,29.667,0,0,1,37.833,30.5H30.167A29.667,29.667,0,0,1,.5.833v0A.333.333,0,0,1,.833.5Z"/></g><g transform="translate(32 -28)"><g class="c" transform="translate(137 210)"><ellipse class="q" cx="19" cy="9.5" rx="19" ry="9.5"/><ellipse class="a" cx="19" cy="9.5" rx="18.5" ry="9"/></g><g class="n" transform="translate(148 210)"><ellipse class="q" cx="8" cy="9" rx="8" ry="9"/><ellipse class="a" cx="8" cy="9" rx="7.5" ry="8.5"/></g></g><text class="o" transform="translate(131 364)"><tspan x="0" y="0">たーのしー！</tspan></text><g class="p"><rect class="q" width="375" height="667"/><rect class="a" x="0.5" y="0.5" width="374" height="666"/></g></g></svg>